<svg id="Outline_Expand" data-name="Outline Expand" xmlns="http://www.w3.org/2000/svg" viewBox="0 0 64 64"><title>Mobile survey</title><path d="M50.07,2H13.93a5,5,0,0,0-5,5V57a5,5,0,0,0,5,5H50.07a5,5,0,0,0,5-5V7A5,5,0,0,0,50.07,2ZM32,4.9a1.26,1.26,0,1,1-1.26,1.26A1.26,1.26,0,0,1,32,4.9ZM53.07,57a3,3,0,0,1-3,3H13.93a3,3,0,0,1-3-3V7a3,3,0,0,1,3-3H29.58a3.22,3.22,0,0,0-.84,2.16,3.26,3.26,0,1,0,6.52,0A3.22,3.22,0,0,0,34.42,4H50.07a3,3,0,0,1,3,3ZM37.86,55.87a1,1,0,0,1-1,1h-10a1,1,0,1,1,0-2H36.86A1,1,0,0,1,37.86,55.87ZM44.52,9.93H39.94a13.64,13.64,0,0,0-6.44,1.41,3.26,3.26,0,0,1-2.84.08,14.28,14.28,0,0,0-6-1.49H19.48A4.53,4.53,0,0,0,15,14.45V47.78a4.53,4.53,0,0,0,4.52,4.52h25A4.53,4.53,0,0,0,49,47.78V14.45A4.53,4.53,0,0,0,44.52,9.93ZM47,47.78a2.52,2.52,0,0,1-2.52,2.52h-25A2.52,2.52,0,0,1,17,47.78V14.45a2.52,2.52,0,0,1,2.52-2.52h5.15a12.2,12.2,0,0,1,5.18,1.3,5.28,5.28,0,0,0,4.62-.12,11.78,11.78,0,0,1,5.51-1.18h4.58A2.52,2.52,0,0,1,47,14.45ZM22.18,26.13h3.66a3,3,0,0,0,3-3V19.25a3,3,0,0,0-3-3H22.18a3,3,0,0,0-3,3v3.88A3,3,0,0,0,22.18,26.13Zm-1-6.88a1,1,0,0,1,1-1h3.66a1,1,0,0,1,1,1v3.88a1,1,0,0,1-1,1H22.18a1,1,0,0,1-1-1Zm23.46-.18a1,1,0,0,1-1,1h-12a1,1,0,0,1,0-2h12A1,1,0,0,1,44.64,19.07Zm0,4.39a1,1,0,0,1-1,1h-12a1,1,0,0,1,0-2h12A1,1,0,0,1,44.64,23.46Zm0,6.42a1,1,0,0,1-1,1h-12a1,1,0,0,1,0-2h12A1,1,0,0,1,44.64,29.88Zm0,4.4a1,1,0,0,1-1,1h-12a1,1,0,0,1,0-2h12A1,1,0,0,1,44.64,34.28Zm-18.8,3.6H22.18a3,3,0,0,0-3,3v3.87a3,3,0,0,0,3,3h3.66a3,3,0,0,0,3-3V40.88A3,3,0,0,0,25.84,37.88Zm1,6.87a1,1,0,0,1-1,1H22.18a1,1,0,0,1-1-1V40.88a1,1,0,0,1,1-1h3.66a1,1,0,0,1,1,1Zm17.8-4a1,1,0,0,1-1,1h-12a1,1,0,1,1,0-2h12A1,1,0,0,1,44.64,40.7Zm0,4.39a1,1,0,0,1-1,1h-12a1,1,0,0,1,0-2h12A1,1,0,0,1,44.64,45.09ZM29.45,27.83a1,1,0,0,1-.1,1.41l-6,5.19a1,1,0,0,1-.65.25h-.12a1,1,0,0,1-.69-.4l-2.52-3.43a1,1,0,0,1,.22-1.4,1,1,0,0,1,1.39.22l1.88,2.55L28,27.73A1,1,0,0,1,29.45,27.83Z"/></svg>