<?xml version="1.0" encoding="UTF-8"?>
<svg id="Outline_Expand" data-name="Outline Expand" xmlns="http://www.w3.org/2000/svg" viewBox="0 0 37.85 60">
  <path d="m36.97,37.64c-.49,0-.88.39-.88.88v16.21c0,1.94-1.58,3.52-3.52,3.52H5.27c-1.94,0-3.52-1.58-3.52-3.52V12.57c0-.49-.39-.88-.88-.88s-.88.39-.88.88v42.16c0,2.91,2.37,5.27,5.27,5.27h27.3c2.91,0,5.27-2.37,5.27-5.27v-16.21c0-.49-.39-.88-.88-.88Z"/>
  <path d="m32.58,0H5.27C2.37,0,0,2.37,0,5.27v3.19c0,.49.39.88.88.88s.88-.39.88-.88v-3.19c0-1.94,1.58-3.52,3.52-3.52h27.3c1.94,0,3.52,1.58,3.52,3.52v29.15c0,.49.39.88.88.88s.88-.39.88-.88V5.27C37.85,2.37,35.49,0,32.58,0h0Z"/>
  <path d="m20.36,5.27c.49,0,.88-.39.88-.88s-.39-.88-.88-.88h-5.86c-.49,0-.88.39-.88.88s.39.88.88.88h5.86Z"/>
  <path d="m25.39,47.55c.42.23.96.08,1.19-.34.71-1.29,1.09-2.75,1.09-4.23,0-4.82-3.92-8.75-8.75-8.75s-8.75,3.92-8.75,8.75,3.92,8.75,8.75,8.75c1.58,0,3.14-.43,4.49-1.24.42-.25.55-.79.3-1.21-.25-.42-.79-.55-1.21-.3-1.08.65-2.32.99-3.59.99-3.85,0-6.99-3.14-6.99-6.99s3.14-6.99,6.99-6.99,6.99,3.14,6.99,6.99c0,1.18-.3,2.35-.87,3.38-.24.42-.08.96.34,1.19h0Z"/>
  <path d="m23.76,41.65c.44-.44.44-1.17,0-1.61s-1.17-.44-1.61,0l-4.6,4.6c-.44.44-.44,1.17,0,1.61s1.17.44,1.61,0l4.6-4.6Z"/>
  <path d="m17.76,46.67c.28.28.86.14,1.31-.3s.58-1.03.3-1.31l-2.87-2.87c-.28-.28-.86-.14-1.31.3s-.58,1.03-.3,1.31l2.87,2.87Z"/>
  <circle cx="23.35" cy="4.4" r=".88"/>
  <path d="m28.63,22.27c-.02-.55-.06-1.14-.13-1.77-.1-.94-.24-1.91-.39-2.52-.07-.31-.26-1.13-4.76-3.08-.28-1.31-1.38-2.3-2.7-2.46-.03-.74,0-2.52,1.04-2.86.21-.07.32-.29.25-.5-.07-.21-.29-.32-.5-.25-1.55.5-1.63,2.69-1.59,3.61-1.21.17-2.22,1.02-2.58,2.18-1.21.09-2.18,1.02-2.31,2.19-5.69,4.14-6,4.85-6.12,5.11-.23.53-.26,1.6-.25,2.4,0,.63.05,1.32.12,1.98.19,1.85.61,4.13,1.52,4.5.14.06.34.08.57.08,1.21,0,3.61-.7,6.92-1.72,1.34-.41,2.61-.8,3.42-.99.69-.17,1.5-.27,2.26-.37,2.16-.29,4.39-.6,4.92-2.2.31-.95.33-2.34.29-3.33h0Zm-8.35-9.07h.01c1.16,0,2.17.87,2.33,2.04.02.09.02.19.02.32,0,1.3-1.06,2.36-2.36,2.36-.14,0-.28-.01-.42-.04.07-.24.11-.5.11-.76,0-1.17-.8-2.16-1.89-2.43.35-.88,1.22-1.5,2.19-1.5h0Zm-4.54,3.85c.04-.92.8-1.64,1.72-1.64h.07s.02,0,.02,0c.91.05,1.63.8,1.63,1.72,0,.29-.07.57-.21.82-.31.56-.89.9-1.52.9-.95,0-1.73-.77-1.73-1.72v-.08h0Zm-.71.7c.28,1.09,1.26,1.89,2.44,1.89.81,0,1.56-.39,2.03-1.03.26.07.52.1.79.1,1.66,0,3.02-1.29,3.14-2.93,2.53,1.12,3.43,1.79,3.75,2.12-1.85.7-10.7,2.45-16.91,3.58.69-.63,2.05-1.76,4.77-3.74Zm-5.5,4.68c3.11-.56,15.1-2.76,17.92-3.8.08.42.17.98.24,1.64-1.79.5-11.51,2.34-18.29,3.58,0-.62.05-1.11.13-1.42Zm-.11,2.22c2.71-.5,15.49-2.84,18.35-3.59.03.33.05.64.07.95-1.14.36-5.54,1.7-9.68,2.4-3.94.66-7.48,1.22-8.66,1.41-.04-.39-.06-.79-.07-1.16Zm18.19.72c-.37,1.13-2.35,1.4-4.27,1.66-.79.11-1.61.22-2.34.39-.84.2-2.11.59-3.47,1.01-2.5.77-6.29,1.93-6.96,1.65-.21-.08-.7-1.05-.99-3.48,1.13-.18,4.72-.75,8.72-1.42,3.97-.67,8.16-1.92,9.58-2.36.01,1.09-.07,1.96-.26,2.54Z"/>
  <path d="m20.59,14.72c.17.06.61.28.71.6.06.22-.03.48-.28.8-.13.17-.11.42.07.55.07.06.16.08.24.08.12,0,.23-.05.31-.15.41-.53.55-1.04.41-1.51-.23-.77-1.11-1.09-1.21-1.12-.21-.07-.43.04-.5.25-.07.21.04.43.24.5h0Z"/>
  <path d="m12.66,28.39c-.45.15-.81.14-1.07-.02-.43-.27-.51-.88-.51-.89-.03-.21-.22-.37-.44-.34-.22.03-.37.22-.34.44,0,.04.13.99.87,1.46.27.17.57.25.91.25.26,0,.54-.05.84-.15.21-.07.32-.29.25-.5-.07-.21-.29-.32-.5-.25h0Z"/>
  <path d="m26.16,25.04l-3.33.7c-.21.04-.35.25-.3.47.04.19.2.31.39.31.03,0,.06,0,.08,0l3.33-.7c.21-.04.35-.25.3-.47-.04-.21-.26-.35-.47-.3h0Z"/>
</svg>