<?xml version="1.0" encoding="UTF-8"?>
<svg id="Outline" xmlns="http://www.w3.org/2000/svg" version="1.1" viewBox="0 0 64 64">
  <path d="M34.04999,45H11.07001l15.48999-11.26001,2.84998,2.07001c.35004.25.83002.25,1.18005,0l2.84998-2.07001,5.10999,3.71997c.44.32001,1.07001.22003,1.40002-.21997.32001-.45001.21997-1.07001-.22003-1.40002l-4.58997-3.33997,15.85999-11.54004v14.04004c0,.54999.45001,1,1,1s1-.45001,1-1v-19c0-.54999-.45001-1-1-1h-1v-3c0-.54999-.45001-1-1-1h-1v-3c0-.54999-.45001-1-1-1H12c-.54999,0-1,.45001-1,1v3h-1c-.54999,0-1,.45001-1,1v3h-1c-.54999,0-1,.45001-1,1v30c0,.54999.45001,1,1,1h26.04999c.54999,0,1-.45001,1-1s-.45001-1-1-1ZM13,9h34v2H13v-2ZM11,13h38v2H11v-2ZM9,17h42v1.48999l-21,15.27002-21-15.27002v-1.48999ZM9,20.95996l15.85999,11.54004-15.85999,11.53998v-23.08002Z" style="fill: #000; stroke-width: 0px;"/>
  <path d="M47,37c-5.51367,0-10,4.48584-10,10s4.48633,10,10,10,10-4.48584,10-10-4.48633-10-10-10ZM47,55c-4.41113,0-8-3.58887-8-8s3.58887-8,8-8,8,3.58887,8,8-3.58887,8-8,8Z" style="fill: #000; stroke-width: 0px;"/>
  <path d="M52,46h-4v-4c0-.55225-.44727-1-1-1s-1,.44775-1,1v4h-4c-.55273,0-1,.44775-1,1s.44727,1,1,1h4v4c0,.55225.44727,1,1,1s1-.44775,1-1v-4h4c.55273,0,1-.44775,1-1s-.44727-1-1-1Z" style="fill: #000; stroke-width: 0px;"/>
</svg>