<svg id="Outline_Expand" data-name="Outline Expand" xmlns="http://www.w3.org/2000/svg" viewBox="0 0 64 64"><title>Response</title><path d="M58,5.85H37.63l-16.71.07-.18,0a4.83,4.83,0,0,0-3.91,4.74V25a9.39,9.39,0,0,0-4.46,17.48h-.13A10.26,10.26,0,0,0,2,52.77v2a3.35,3.35,0,0,0,3.34,3.34H28.92a3.35,3.35,0,0,0,3.34-3.34v-2A10.26,10.26,0,0,0,22,42.52H21.9a9.35,9.35,0,0,0,3.09-3h10.5a2,2,0,0,1,1.92,2.58l-.94,3.08a3,3,0,0,0,1.29,3.44,3,3,0,0,0,3.66-.36l8.77-8.2a2,2,0,0,1,1.36-.54H58a4,4,0,0,0,4-4V9.89A4,4,0,0,0,58,5.85ZM22,44.52a8.26,8.26,0,0,1,8.25,8.25v2a1.34,1.34,0,0,1-1.34,1.34h-5l-.08-6.4a1,1,0,0,0-1-1h0a1,1,0,0,0-1,1l.08,6.37H11.64l-.09-6.42a1,1,0,0,0-1-1h0a1,1,0,0,0-1,1l.09,6.39H5.34A1.34,1.34,0,0,1,4,54.8v-2a8.26,8.26,0,0,1,8.24-8.25Zm1.58-6.47h0a7.4,7.4,0,1,1-6.46-11l.61,0h0a7.41,7.41,0,0,1,5.85,11ZM60,35.5a2,2,0,0,1-2,2H51.55a4,4,0,0,0-2.73,1.08l-8.76,8.2a1,1,0,0,1-1.24.12,1,1,0,0,1-.43-1.15l.93-3.09a4,4,0,0,0-3.83-5.16H26a9.37,9.37,0,0,0,.53-3.11,9.47,9.47,0,0,0-7.7-9.25V10.68A2.84,2.84,0,0,1,21,7.92l16.61-.07H58a2,2,0,0,1,2,2ZM53.86,14.18a1,1,0,0,1-1,1H26a1,1,0,0,1,0-2H52.86A1,1,0,0,1,53.86,14.18Zm0,8.1a1,1,0,0,1-1,1H26.34a1,1,0,0,1,0-2H52.86A1,1,0,0,1,53.86,22.28ZM50.8,29.72a1,1,0,0,1-1,1H29.31a1,1,0,0,1,0-2H49.8A1,1,0,0,1,50.8,29.72Z"/></svg>