<?xml version="1.0" encoding="UTF-8"?><svg id="Layer_1" xmlns="http://www.w3.org/2000/svg" viewBox="0 0 64 64"><g id="Growth"><path d="m4,7c.55273438,0,1-.44775391,1-1v-2h8.75c5.40332031,0,10.7890625.66259766,16.00683594,1.97021484,5.37695312,1.34667969,10.92675781,2.02978516,16.49316406,2.02978516h8.75v2c0,.55224609.44726562,1,1,1s1-.44775391,1-1v-3c0-.55224609-.44726562-1-1-1h-9.75c-5.40332031,0-10.7890625-.66259766-16.00683594-1.97021484-5.37695312-1.34667969-10.92675781-2.02978516-16.49316406-2.02978516H4c-.55273438,0-1,.44775391-1,1v3c0,.55224609.44726562,1,1,1Z"/><path d="m36.17578125,47.23242188c-2.0625-.32714844-4.05859375-.73144531-5.93261719-1.20263672-5.37695312-1.34667969-10.92675781-2.02978516-16.49316406-2.02978516H2V10h11.75c5.40332031,0,10.7890625.66259766,16.00683594,1.97021484,5.37695312,1.34667969,10.92675781,2.02978516,16.49316406,2.02978516h11.75v22.31982422c0,.55224609.44726562,1,1,1s1-.44775391,1-1V13c0-.55224609-.44726562-1-1-1h-12.75c-5.40332031,0-10.7890625-.66259766-16.00683594-1.97021484-5.37695312-1.34667969-10.92675781-2.02978516-16.49316406-2.02978516H1c-.55273438,0-1,.44775391-1,1v36c0,.55224609.44726562,1,1,1h12.75c5.40332031,0,10.7890625.66259766,16.00585938,1.96972656,1.93066406.48535156,3.98535156.90185547,6.10742188,1.23828125.05273438.00830078.10546875.01220703.15722656.01220703.48339844,0,.90820312-.35107422.98632812-.84326172.08691406-.54541016-.28515625-1.05810547-.83105469-1.14453125Z"/><path d="m36.91601562,43.29052734c-1.88964844-.28076172-3.80859375-.66455078-5.703125-1.140625-5.69628906-1.42675781-11.57128906-2.14990234-17.46289062-2.14990234h-2.83300781c-.42285156-2.50878906-2.40820312-4.49414062-4.91699219-4.91650391v-16.16699219c2.50878906-.42236328,4.49414062-2.40771484,4.91699219-4.91650391h2.83300781c5.07714844,0,10.13671875.62255859,15.03710938,1.85009766,5.69628906,1.42626953,11.57128906,2.14990234,17.46289062,2.14990234h2.83300781c.42285156,2.50878906,2.40820312,4.49414062,4.91699219,4.91650391v11.62353516c0,.55224609.44726562,1,1,1s1-.44775391,1-1v-12.54003906c0-.55224609-.44726562-1-1-1-2.20605469,0-4-1.79443359-4-4,0-.55224609-.44726562-1-1-1h-3.75c-5.72753906,0-11.43945312-.703125-16.9765625-2.09033203-5.05957031-1.26708984-10.28222656-1.90966797-15.5234375-1.90966797h-3.75c-.55273438,0-1,.44775391-1,1,0,2.20556641-1.79394531,4-4,4-.55273438,0-1,.44775391-1,1v18c0,.55224609.44726562,1,1,1,2.20605469,0,4,1.79443359,4,4,0,.55224609.44726562,1,1,1h3.75c5.72753906,0,11.43945312.703125,16.97558594,2.08984375,1.95800781.4921875,3.94140625.88867188,5.89746094,1.17919922.04980469.00732422.09863281.01074219.14746094.01074219.48730469,0,.9140625-.35644531.98828125-.85302734.08105469-.54638672-.29589844-1.05517578-.84277344-1.13623047Z"/><path d="m46.25,30c-1.48144531,0-2.92773438-.04296875-4.29882812-.12792969-.54394531-.03222656-1.02441406.38525391-1.05957031.93603516-.03417969.55126953.38476562,1.02587891.93652344,1.06005859,1.41113281.08740234,2.89941406.13183594,4.421875.13183594h.75c.55273438,0,1-.44775391,1-1s-.44726562-1-1-1h-.75Z"/><path d="m13.75,26h-.75c-.55273438,0-1,.44775391-1,1s.44726562,1,1,1h.75c1.4921875,0,2.89355469.05126953,4.28417969.15722656.02636719.00195312.05175781.00292969.07714844.00292969.51757812,0,.95605469-.39941406.99609375-.92431641.04199219-.55029297-.37011719-1.03076172-.92089844-1.07275391-1.44238281-.10986328-2.89355469-.16308594-4.43652344-.16308594Z"/><path d="m51,36c-7.16796875,0-13,5.83154297-13,13s5.83203125,13,13,13,13-5.83154297,13-13-5.83203125-13-13-13Zm0,24c-6.06542969,0-11-4.93457031-11-11s4.93457031-11,11-11,11,4.93457031,11,11-4.93457031,11-11,11Z"/><path d="m51.79980469,41.39990234c-.37695312-.50390625-1.22265625-.50390625-1.59960938,0l-6,8c-.22753906.30322266-.26367188.70849609-.09472656,1.04736328.16992188.33886719.515625.55273438.89453125.55273438h2v4c0,.55224609.44726562,1,1,1h6c.55273438,0,1-.44775391,1-1v-4h2c.37890625,0,.72460938-.21386719.89453125-.55273438.16894531-.33886719.1328125-.74414062-.09472656-1.04736328l-6-8Zm2.20019531,7.60009766c-.55273438,0-1,.44775391-1,1v4h-4v-4c0-.55224609-.44726562-1-1-1h-1l4-5.33349609,4,5.33349609h-1Z"/><path d="m22,29c0,5.51416016,3.58886719,10,8,10s8-4.48583984,8-10-3.58886719-10-8-10-8,4.48583984-8,10Zm14,0c0,4.41113281-2.69140625,8-6,8s-6-3.58886719-6-8,2.69140625-8,6-8,6,3.58886719,6,8Z"/></g></svg>