<?xml version="1.0"?><svg fill="#000000" xmlns="http://www.w3.org/2000/svg"  viewBox="0 0 24 24" width="24px" height="24px">    <path d="M 4 4 C 2.976 4 2.1404375 4.772625 2.0234375 5.765625 L 12 12 L 21.976562 5.765625 C 21.859563 4.772625 21.024 4 20 4 L 4 4 z M 2 7.7519531 L 2 18 C 2 19.105 2.895 20 4 20 L 18 20 L 18 15 C 18 13.343 19.343 12 21 12 L 22 12 L 22 7.7519531 L 12.529297 13.669922 C 12.205297 13.872922 11.794703 13.872922 11.470703 13.669922 L 2 7.7519531 z M 21 14 C 20.448 14 20 14.448 20 15 L 20 20 C 20 20.552 20.448 21 21 21 C 21.552 21 22 20.552 22 20 L 22 15 C 22 14.448 21.552 14 21 14 z M 21 22 C 20.448 22 20 22.448 20 23 C 20 23.552 20.448 24 21 24 C 21.552 24 22 23.552 22 23 C 22 22.448 21.552 22 21 22 z"/></svg>